<svg xmlns="http://www.w3.org/2000/svg" version="1.1" xmlns:xlink="http://www.w3.org/1999/xlink" xmlns:svgjs="http://svgjs.dev/svgjs" width="1000" height="1000" viewBox="0 0 1000 1000"><rect width="1000" height="1000" fill="#ea3c12"></rect><g transform="matrix(0.7,0,0,0.7,150.88958333333318,87.58625000000018)"><svg viewBox="0 0 120 141" data-background-color="#ea3c12" preserveAspectRatio="xMidYMid meet" height="1175" width="1000" xmlns="http://www.w3.org/2000/svg" xmlns:xlink="http://www.w3.org/1999/xlink"><g id="tight-bounds" transform="matrix(1,0,0,1,-0.152499999999975,0.19949999999997203)"><svg viewBox="0 0 120.30470703296706 140.60052000000002" height="140.60052000000002" width="120.30470703296706"><g><svg viewBox="0 0 120.30470703296706 140.60052000000002" height="140.60052000000002" width="120.30470703296706"><g><svg viewBox="0 0 120.30470703296706 140.60052000000002" height="140.60052000000002" width="120.30470703296706"><g><path d="M0 140.601v-140.601h120.305v140.601z" fill="#ffffff" stroke="transparent" stroke-width="0" rx="0%" data-fill-palette-color="tertiary"></path><path d="M3.283 137.317v-134.034h113.738v134.034z" fill="#ea3c12" stroke="transparent" stroke-width="0" rx="0%" data-fill-palette-color="quaternary"></path><path d="M9.85 130.751v-120.901h100.605v120.901z" fill="#ffffff" stroke="transparent" stroke-width="0" data-fill-palette-color="tertiary"></path></g><g transform="matrix(1,0,0,1,19.69974,19.69974)" id="textblocktransform"><svg viewBox="0 0 80.90522703296706 101.20104000000002" height="101.20104000000002" width="80.90522703296706" id="textblock"><g><svg viewBox="0 0 80.90522703296706 101.20104000000002" height="101.20104000000002" width="80.90522703296706"><g transform="matrix(1,0,0,1,0,0)"><svg width="80.90522703296706" viewBox="1.95 -35.7 29.1 36.400000000000006" height="101.20104000000002" data-palette-color="#ea3c12"><path d="M19.1 0.7L19.1 0.7Q14.25 0.7 10.36-1.54 6.48-3.78 4.21-7.88 1.95-11.98 1.95-17.55L1.95-17.55Q1.95-23.08 4.29-27.15 6.63-31.23 10.71-33.46 14.8-35.7 20.05-35.7L20.05-35.7Q22.88-35.7 25.44-35.11 28-34.52 29.9-33.7L29.9-33.7 29.45-29.55Q27.4-30.35 25.1-30.88 22.8-31.4 20.2-31.4L20.2-31.4Q15.73-31.4 12.84-29.54 9.95-27.68 8.55-24.53 7.15-21.38 7.15-17.5L7.15-17.5Q7.15-13.5 8.58-10.36 10-7.23 12.95-5.41 15.9-3.6 20.45-3.6L20.45-3.6Q21.58-3.6 23.25-3.8 24.93-4 26.3-4.55L26.3-4.55 26.3-13.25 20.8-13.25 20.8-17.55 31.05-17.55 31.05-1.95Q29-0.83 25.95-0.06 22.9 0.7 19.1 0.7Z" opacity="1" transform="matrix(1,0,0,1,0,0)" fill="#ea3c12" class="undefined-text-0" data-fill-palette-color="quaternary" id="text-0"></path></svg></g></svg></g></svg></g></svg></g><g></g></svg></g><defs></defs></svg><rect width="120.30470703296706" height="140.60052000000002" fill="none" stroke="none" visibility="hidden"></rect></g></svg></g></svg>